<svg width="126" height="124" xmlns="http://www.w3.org/2000/svg" xmlns:xlink="http://www.w3.org/1999/xlink" xml:space="preserve" overflow="hidden"><defs><clipPath id="clip0"><rect x="328" y="396" width="126" height="124"/></clipPath><clipPath id="clip1"><rect x="328" y="397" width="126" height="122"/></clipPath><clipPath id="clip2"><rect x="346" y="414" width="97" height="97"/></clipPath><clipPath id="clip3"><rect x="346" y="414" width="97" height="97"/></clipPath></defs><g clip-path="url(#clip0)" transform="translate(-328 -396)"><g clip-path="url(#clip1)"><g clip-path="url(#clip2)"><g clip-path="url(#clip3)"><path d="M88.9708 56.5815C88.1711 56.5815 87.4713 56.0816 87.1714 55.3819L74.5756 25.6916 47.8843 14.6952 21.1931 25.6916 8.79712 55.082C8.39725 56.0816 7.19764 56.5815 6.19797 56.1816 5.1983 55.7817 4.69846 54.5821 5.09833 53.5824L17.9941 22.7925 47.7843 10.4966 77.5746 22.7925 90.7703 53.8823C91.1701 54.882 90.7703 56.0816 89.6706 56.4815 89.4707 56.4815 89.2708 56.5815 88.9708 56.5815Z" fill="#000000" fill-rule="nonzero" fill-opacity="1" transform="matrix(1 0 0 1.00064 346.175 414.452)"/><path d="M47.9843 75.8751 32.0895 85.572 63.8791 85.572Z" fill="#000000" fill-rule="nonzero" fill-opacity="1" transform="matrix(1 0 0 1.00064 346.175 414.452)"/><path d="M26.9912 83.9725 44.1855 73.5759 26.9912 63.0793Z" fill="#000000" fill-rule="nonzero" fill-opacity="1" transform="matrix(1 0 0 1.00064 346.175 414.452)"/><path d="M32.0895 61.5798 47.9843 71.1767 63.8791 61.5798Z" fill="#000000" fill-rule="nonzero" fill-opacity="1" transform="matrix(1 0 0 1.00064 346.175 414.452)"/><path d="M68.9774 83.9725 68.9774 63.0793 51.783 73.5759Z" fill="#000000" fill-rule="nonzero" fill-opacity="1" transform="matrix(1 0 0 1.00064 346.175 414.452)"/><path d="M37.9876 34.0888 57.981 34.0888 57.981 46.0849 37.9876 46.0849Z" fill="#000000" fill-rule="nonzero" fill-opacity="1" transform="matrix(1 0 0 1.00064 346.175 414.452)"/><path d="M71.9764 27.7909 47.8843 17.5942 23.7922 27.8909 13.0957 54.882 13.0957 83.5726C13.0957 84.6723 13.9954 85.572 15.0951 85.572L23.0924 85.572 23.0924 59.5805C23.0924 58.4808 23.9921 57.5811 25.0918 57.5811L71.0767 57.5811C72.1763 57.5811 73.0761 58.4808 73.0761 59.5805L73.0761 85.572 81.0734 85.572C82.1731 85.572 83.0728 84.6723 83.0728 83.5726L83.0728 54.7821 71.9764 27.7909ZM61.9797 48.0842C61.9797 49.1839 61.08 50.0836 59.9803 50.0836L35.9882 50.0836C34.8886 50.0836 33.9889 49.1839 33.9889 48.0842L33.9889 32.0895C33.9889 30.9898 34.8886 30.0901 35.9882 30.0901L59.9803 30.0901C61.08 30.0901 61.9797 30.9898 61.9797 32.0895L61.9797 48.0842Z" fill="#000000" fill-rule="nonzero" fill-opacity="1" transform="matrix(1 0 0 1.00064 346.175 414.452)"/></g></g></g></g></svg>